<svg xmlns="http://www.w3.org/2000/svg" width="52.5" height="46.143" viewBox="0 0 52.5 46.143"><defs><style>.a{fill:#0071bc;}</style></defs><g transform="translate(0 -31)"><path class="a" d="M47.886,49.457H46.245V35.614A4.619,4.619,0,0,0,41.631,31H4.614A4.619,4.619,0,0,0,0,35.614V60.224a4.619,4.619,0,0,0,4.614,4.614H6.152v7.69a1.538,1.538,0,0,0,2.626,1.088l8.778-8.778h7.156v1.538a4.619,4.619,0,0,0,4.614,4.614h8.591l5.7,5.7A1.538,1.538,0,0,0,46.245,75.6V70.99h1.641A4.62,4.62,0,0,0,52.5,66.376v-12.3A4.619,4.619,0,0,0,47.886,49.457Zm-30.967,12.3a1.538,1.538,0,0,0-1.088.45l-6.6,6.6V63.3A1.538,1.538,0,0,0,7.69,61.762H4.614a1.54,1.54,0,0,1-1.538-1.538V35.614a1.54,1.54,0,0,1,1.538-1.538H41.631a1.54,1.54,0,0,1,1.538,1.538V49.457H29.326a4.619,4.619,0,0,0-4.614,4.614v7.69Zm32.5,4.614a1.54,1.54,0,0,1-1.538,1.538H44.707a1.538,1.538,0,0,0-1.538,1.538v2.439l-3.527-3.527a1.537,1.537,0,0,0-1.088-.451H29.326a1.54,1.54,0,0,1-1.538-1.538v-12.3a1.54,1.54,0,0,1,1.538-1.538h18.56a1.54,1.54,0,0,1,1.538,1.538Z"/><path class="a" d="M330.871,286.45l-3.527,3.527-1.22-1.22a1.538,1.538,0,0,0-2.175,2.175l2.307,2.307a1.538,1.538,0,0,0,2.175,0l4.614-4.614a1.538,1.538,0,0,0-2.175-2.175Z" transform="translate(-290.328 -228.852)"/><path class="a" d="M100.869,241H91.538a1.538,1.538,0,0,0,0,3.076h9.331a1.538,1.538,0,0,0,0-3.076Z" transform="translate(-80.771 -188.467)"/><path class="a" d="M103.945,181H91.538a1.538,1.538,0,0,0,0,3.076h12.407a1.538,1.538,0,0,0,0-3.076Z" transform="translate(-80.771 -134.619)"/><path class="a" d="M91.538,124.076H116.25a1.538,1.538,0,0,0,0-3.076H91.538a1.538,1.538,0,0,0,0,3.076Z" transform="translate(-80.771 -80.771)"/></g></svg>