<svg xmlns="http://www.w3.org/2000/svg" xmlns:xlink="http://www.w3.org/1999/xlink" width="104.957" height="34.525" viewBox="0 0 104.957 34.525"><defs><style>.a{fill:url(#a);}</style><linearGradient id="a" x1="1" y1="1.779" x2="0" y2="-15.085" gradientUnits="objectBoundingBox"><stop offset="0" stop-color="#0e418c"/><stop offset="1" stop-color="#0071bc"/></linearGradient></defs><g transform="translate(-608 -359)"><g transform="translate(608 359)"><g transform="translate(45.654 6.877)"><path d="M538.841,325.5h.275a.485.485,0,0,1,.485.485v3.482h.1l3.916-3.829a.485.485,0,0,1,.339-.138h.331a.485.485,0,0,1,.335.835l-3.559,3.4,3.945,4.118a.485.485,0,0,1-.35.82h-.468a.485.485,0,0,1-.355-.154l-4.134-4.434h-.1v4.1a.485.485,0,0,1-.485.485h-.275a.485.485,0,0,1-.485-.485v-8.208A.485.485,0,0,1,538.841,325.5Z" transform="translate(-538.265 -325.27)"/><path d="M595.93,325.5h.492a.485.485,0,0,1,.446.294L600.38,334a.485.485,0,0,1-.446.676h-.39a.485.485,0,0,1-.449-.3l-.8-1.966h-4.368l-.786,1.964a.485.485,0,0,1-.45.3h-.38a.485.485,0,0,1-.444-.68l3.617-8.208A.485.485,0,0,1,595.93,325.5Zm1.913,5.82-1.711-4.213h-.026l-1.737,4.213Z" transform="translate(-583.78 -325.27)"/><path d="M658.357,325.5h.275a.485.485,0,0,1,.485.485V334.2a.485.485,0,0,1-.485.485h-.275a.485.485,0,0,1-.485-.485v-8.208A.485.485,0,0,1,658.357,325.5Z" transform="translate(-639.997 -325.27)"/><path d="M686.432,360.14h-2.219a.485.485,0,0,1-.485-.485v-.119a.485.485,0,0,1,.485-.485h2.219a.485.485,0,0,1,.485.485v.119A.485.485,0,0,1,686.432,360.14Z" transform="translate(-662.006 -353.826)"/><path d="M708.408,330.766l-2.978-4.511a.485.485,0,0,1,.4-.752h.424a.484.484,0,0,1,.412.229l2.36,3.8,2.436-3.808a.485.485,0,0,1,.408-.224h.35a.485.485,0,0,1,.4.752l-2.978,4.511v3.43a.485.485,0,0,1-.485.485h-.275a.485.485,0,0,1-.485-.485Z" transform="translate(-680.41 -325.27)"/><path d="M766.491,333.58a4.947,4.947,0,0,1-1.931-.369,4.5,4.5,0,0,1-1.51-1.018,4.7,4.7,0,0,1-.985-1.529,5.27,5.27,0,0,1,0-3.811,4.706,4.706,0,0,1,.985-1.53,4.5,4.5,0,0,1,1.51-1.018,5.237,5.237,0,0,1,3.863,0,4.507,4.507,0,0,1,1.51,1.018,4.709,4.709,0,0,1,.985,1.53,5.271,5.271,0,0,1,0,3.811,4.707,4.707,0,0,1-.985,1.529,4.5,4.5,0,0,1-1.51,1.018A4.949,4.949,0,0,1,766.491,333.58Zm0-1.167a3.336,3.336,0,0,0,2.515-1.076,3.457,3.457,0,0,0,.7-1.16,4.213,4.213,0,0,0,0-2.839,3.467,3.467,0,0,0-.7-1.16,3.437,3.437,0,0,0-5.029,0,3.455,3.455,0,0,0-.7,1.16,4.214,4.214,0,0,0,0,2.839,3.446,3.446,0,0,0,.7,1.16,3.336,3.336,0,0,0,2.515,1.076Z" transform="translate(-728.382 -323.936)"/><path d="M838.514,325.5a.485.485,0,0,1,.485.485v5.141a3.612,3.612,0,0,0,.117.888,2.568,2.568,0,0,0,.389.849,2.111,2.111,0,0,0,.713.635,2.53,2.53,0,0,0,2.177,0,2.111,2.111,0,0,0,.713-.635,2.574,2.574,0,0,0,.389-.849,3.609,3.609,0,0,0,.117-.888v-5.141a.485.485,0,0,1,.485-.485h.275a.485.485,0,0,1,.485.485v5.335a3.763,3.763,0,0,1-.272,1.458,3.467,3.467,0,0,1-.752,1.134,3.32,3.32,0,0,1-1.128.739,3.909,3.909,0,0,1-2.8,0,3.315,3.315,0,0,1-1.128-.739,3.465,3.465,0,0,1-.752-1.134,3.76,3.76,0,0,1-.272-1.458v-5.335a.485.485,0,0,1,.485-.485Z" transform="translate(-793.113 -325.27)"/><path d="M538.231,407.253h1.047a.485.485,0,0,1,.447.3l2.792,6.651h.052l2.766-6.649a.485.485,0,0,1,.448-.3h1.046a.485.485,0,0,1,.485.485v8.208a.485.485,0,0,1-.485.485h-.275a.485.485,0,0,1-.485-.485v-7.059h-.026l-2.974,7.243a.485.485,0,0,1-.448.3h-.18a.485.485,0,0,1-.448-.3l-2.975-7.243h-.026v7.059a.485.485,0,0,1-.485.485h-.275a.485.485,0,0,1-.485-.485v-8.208A.485.485,0,0,1,538.231,407.253Z" transform="translate(-537.746 -394.855)"/><path d="M614.819,427.866a.458.458,0,0,1,.08-.7,3.315,3.315,0,0,1,.707-.345,3.9,3.9,0,0,1,1.3-.227,3.562,3.562,0,0,1,1.16.169,2.258,2.258,0,0,1,.8.454,1.793,1.793,0,0,1,.46.655,2.046,2.046,0,0,1,.149.771v3.137q0,.324.013.6l0,.035a.457.457,0,0,1-.455.484h-.115a.458.458,0,0,1-.457-.438q-.011-.248-.011-.5h-.026a2.233,2.233,0,0,1-.92.843,2.9,2.9,0,0,1-1.231.246,2.825,2.825,0,0,1-.817-.117,1.987,1.987,0,0,1-.68-.35,1.662,1.662,0,0,1-.46-.577,1.991,1.991,0,0,1,.1-1.8,2.012,2.012,0,0,1,.726-.655,3.508,3.508,0,0,1,1.076-.363,7.472,7.472,0,0,1,1.316-.11h.855v-.259a1.28,1.28,0,0,0-.091-.466,1.259,1.259,0,0,0-.272-.421,1.305,1.305,0,0,0-.454-.3,1.726,1.726,0,0,0-.648-.11,2.392,2.392,0,0,0-.59.065,2.607,2.607,0,0,0-.46.162,2.01,2.01,0,0,0-.376.227l0,0a.451.451,0,0,1-.6-.045Zm2.939,2.071a8.22,8.22,0,0,0-.849.045,3.348,3.348,0,0,0-.791.175,1.522,1.522,0,0,0-.583.363.819.819,0,0,0-.227.6.845.845,0,0,0,.356.765,1.745,1.745,0,0,0,.966.233,1.87,1.87,0,0,0,.817-.162,1.536,1.536,0,0,0,.544-.421,1.631,1.631,0,0,0,.3-.577,2.284,2.284,0,0,0,.091-.629v-.389Z" transform="translate(-602.774 -411.317)"/><path d="M662.574,426.748h.471a.348.348,0,0,1,.348.348v.6h.026a1.67,1.67,0,0,1,.311-.447,2.082,2.082,0,0,1,.434-.343,2.3,2.3,0,0,1,.525-.227,2.009,2.009,0,0,1,.571-.084,1.925,1.925,0,0,1,.2.01.348.348,0,0,1,.309.361l-.023.554a.349.349,0,0,1-.408.328h0a.483.483,0,0,0-.054-.005,1.779,1.779,0,0,0-1.43.477,2.107,2.107,0,0,0-.454,1.491v2.737a.348.348,0,0,1-.348.348h-.471a.348.348,0,0,1-.348-.348V427.1A.348.348,0,0,1,662.574,426.748Z" transform="translate(-643.703 -411.317)"/><path d="M695.814,403.072h.2a.485.485,0,0,1,.485.485V409.4l2.5-2.514a.484.484,0,0,1,.344-.143h.225a.485.485,0,0,1,.338.832l-2.009,1.955,2.353,2.529a.485.485,0,0,1-.355.815h-.329a.485.485,0,0,1-.361-.162l-2.707-3.027v2.7a.485.485,0,0,1-.485.485h-.2a.485.485,0,0,1-.485-.485v-8.83A.485.485,0,0,1,695.814,403.072Z" transform="translate(-671.88 -391.296)"/><path d="M740.216,430.248a1.54,1.54,0,0,0,.175.732,1.822,1.822,0,0,0,.46.564,2.124,2.124,0,0,0,.661.363,2.364,2.364,0,0,0,.778.13,1.742,1.742,0,0,0,.946-.253,2.854,2.854,0,0,0,.493-.395.417.417,0,0,1,.549-.041l.224.171a.418.418,0,0,1,.031.634,3.3,3.3,0,0,1-2.4.894,3.388,3.388,0,0,1-1.316-.246,2.86,2.86,0,0,1-1-.681,3.009,3.009,0,0,1-.629-1.024,3.613,3.613,0,0,1-.22-1.277,3.358,3.358,0,0,1,.24-1.277,3.169,3.169,0,0,1,.661-1.024,3.023,3.023,0,0,1,1-.68,3.234,3.234,0,0,1,1.27-.246,3.038,3.038,0,0,1,1.381.285,2.734,2.734,0,0,1,.927.746,2.944,2.944,0,0,1,.525,1.037,4.321,4.321,0,0,1,.162,1.173h0a.415.415,0,0,1-.415.415Zm3.681-.933a2.467,2.467,0,0,0-.123-.713,1.575,1.575,0,0,0-.33-.564,1.529,1.529,0,0,0-.551-.376,2.015,2.015,0,0,0-.771-.136,1.876,1.876,0,0,0-.784.162,1.915,1.915,0,0,0-.6.421,1.945,1.945,0,0,0-.382.577,1.587,1.587,0,0,0-.136.629Z" transform="translate(-709.029 -411.317)"/><path d="M788.57,418.787h-1.349v2.787q0,.259.013.512a1.346,1.346,0,0,0,.1.454.735.735,0,0,0,.259.324.886.886,0,0,0,.512.123,2.469,2.469,0,0,0,.428-.039h0a.328.328,0,0,1,.4.315v.391a.325.325,0,0,1-.229.311,1.953,1.953,0,0,1-.309.066,4.068,4.068,0,0,1-.512.045,2.347,2.347,0,0,1-1.043-.188,1.279,1.279,0,0,1-.544-.486,1.567,1.567,0,0,1-.207-.667q-.033-.37-.032-.746v-3.2h-1.024a.324.324,0,0,1-.324-.324V418.1a.324.324,0,0,1,.324-.324h1.024v-1.4a.324.324,0,0,1,.324-.324h.519a.324.324,0,0,1,.324.324v1.4h1.349a.324.324,0,0,1,.324.324v.363A.324.324,0,0,1,788.57,418.787Z" transform="translate(-747.959 -402.345)"/><rect width="1.167" height="6.144" rx="0.583" transform="translate(42.659 15.431)"/><path d="M846.08,426.748h.2a.485.485,0,0,1,.485.485v.461h.026a1.721,1.721,0,0,1,.765-.8,2.536,2.536,0,0,1,1.257-.3,2.665,2.665,0,0,1,.849.136,1.914,1.914,0,0,1,.713.421,2.037,2.037,0,0,1,.486.732,2.8,2.8,0,0,1,.181,1.056v3.469a.485.485,0,0,1-.485.485h-.2a.485.485,0,0,1-.485-.485v-3.145a2.049,2.049,0,0,0-.117-.732,1.337,1.337,0,0,0-.311-.492,1.172,1.172,0,0,0-.447-.272,1.661,1.661,0,0,0-.525-.084,1.907,1.907,0,0,0-.674.117,1.407,1.407,0,0,0-.544.369,1.74,1.74,0,0,0-.363.642,2.913,2.913,0,0,0-.13.921v2.678a.485.485,0,0,1-.485.485h-.2a.485.485,0,0,1-.485-.485v-5.174A.485.485,0,0,1,846.08,426.748Z" transform="translate(-799.787 -411.317)"/><path d="M899.351,432.84a3.3,3.3,0,0,1-.24,1.277,2.911,2.911,0,0,1-.68,1,3.088,3.088,0,0,1-1.063.655,3.888,3.888,0,0,1-1.374.233,5.043,5.043,0,0,1-1.614-.246,3.646,3.646,0,0,1-1.017-.542.481.481,0,0,1-.079-.685l.164-.2a.482.482,0,0,1,.682-.073,3,3,0,0,0,.632.408,2.773,2.773,0,0,0,1.205.253,2.682,2.682,0,0,0,1.076-.188,1.847,1.847,0,0,0,.681-.486,1.749,1.749,0,0,0,.356-.681,2.931,2.931,0,0,0,.1-.771v-.907h-.039a2.051,2.051,0,0,1-.914.823,2.862,2.862,0,0,1-1.212.266,3.226,3.226,0,0,1-1.251-.24,2.973,2.973,0,0,1-.991-.661,3.008,3.008,0,0,1-.648-1,3.3,3.3,0,0,1-.233-1.251,3.584,3.584,0,0,1,.22-1.264,3.094,3.094,0,0,1,.629-1.031,2.85,2.85,0,0,1,.985-.687,3.252,3.252,0,0,1,1.289-.246,2.864,2.864,0,0,1,1.212.272,2.225,2.225,0,0,1,.927.765h.026v-.4a.485.485,0,0,1,.485-.485h.2a.485.485,0,0,1,.485.485Zm-3.189-5.159a2.11,2.11,0,0,0-.843.162,1.86,1.86,0,0,0-.635.441,1.938,1.938,0,0,0-.4.674,2.52,2.52,0,0,0-.143.862,2.064,2.064,0,0,0,.545,1.5,2.218,2.218,0,0,0,2.955,0,2.063,2.063,0,0,0,.545-1.5,2.526,2.526,0,0,0-.143-.862,1.944,1.944,0,0,0-.4-.674,1.863,1.863,0,0,0-.635-.441A2.112,2.112,0,0,0,896.162,427.681Z" transform="translate(-840.049 -411.317)"/><path d="M823.454,404.543a11.634,11.634,0,0,0-.855,1.668.856.856,0,1,0,1.711,0A11.634,11.634,0,0,0,823.454,404.543Z" transform="translate(-780.212 -392.549)"/></g><g transform="translate(1.896 32.494)"><path class="a" d="M277.415,498.123H243.747a.075.075,0,0,1-.068-.106l.655-1.417.215-.464a.075.075,0,0,1,.068-.043h31.929a.075.075,0,0,1,.068.043l.215.464.655,1.417A.075.075,0,0,1,277.415,498.123Z" transform="translate(-243.672 -496.092)"/></g><g transform="translate(3.771 28.432)"><path class="a" d="M286.267,470.826H256.349a.075.075,0,0,1-.068-.106l.87-1.881a.075.075,0,0,1,.068-.043H285.4a.075.075,0,0,1,.068.043l.87,1.881A.075.075,0,0,1,286.267,470.826Z" transform="translate(-256.274 -468.795)"/></g><path class="a" d="M268.466,279.751a.075.075,0,0,1,.073.092l-.525,2.278-.39,1.692-.936,4.062-.7,3.046-.235,1.016L264.812,296l-.939,4.062-.923,4a.075.075,0,0,1-.073.058h-7.989a.075.075,0,0,1-.075-.075v-7.033a5.017,5.017,0,0,0-.1-1.015,5.079,5.079,0,0,0-9.951,0,5.016,5.016,0,0,0-.1,1.015v7.033a.075.075,0,0,1-.075.075h-7.989a.075.075,0,0,1-.073-.058l-.923-4L234.66,296l-.936-4.062-.235-1.016-.7-3.046-.936-4.062-.39-1.692-.525-2.278a.075.075,0,0,1,.073-.092h7.97a.075.075,0,0,1,.073.058l.923,4,.923,4a.075.075,0,0,0,.073.058h3.616a.075.075,0,0,0,.075-.075v-10a.075.075,0,0,1,.075-.075h10a.075.075,0,0,1,.075.075v10a.075.075,0,0,0,.075.075H258.5a.075.075,0,0,0,.073-.058l.923-4,.923-4a.075.075,0,0,1,.073-.058Z" transform="translate(-230.931 -277.72)"/></g></g></svg>