<svg xmlns="http://www.w3.org/2000/svg" width="41" height="41" viewBox="0 0 41 41"><defs><style>.a{fill:#0071bc;}</style></defs><path class="a" d="M26.426,13.213A13.213,13.213,0,0,0,0,13.213a54,54,0,0,0,1.222,9.87A52.208,52.208,0,0,1,2.4,32.512a8.409,8.409,0,1,0,16.816,0,9.258,9.258,0,0,0-.171-1.773c-.586-2.864,1.523-6.2,3.508-8.183A13.126,13.126,0,0,0,26.426,13.213ZM16.694,31.22a6.862,6.862,0,0,1,.122,1.292,6.006,6.006,0,1,1-12.012,0,54,54,0,0,0-1.222-9.87A52.208,52.208,0,0,1,2.4,13.213a10.811,10.811,0,1,1,18.455,7.644C18.336,23.379,15.918,27.425,16.694,31.22Z"/><g transform="translate(4.805 4.805)"><path class="a" d="M69.979,60.146A8.42,8.42,0,0,0,60,68.41a49.079,49.079,0,0,0,1.14,8.947c.188,1,.383,2.036.558,3.067a4.257,4.257,0,0,0,8.38.176,8.734,8.734,0,0,0-1.556-7.912,8.375,8.375,0,0,0-6.085-3.067Q62.4,69.01,62.4,68.41a6.007,6.007,0,1,1,10.253,4.248l1.7,1.7A8.413,8.413,0,0,0,69.979,60.146ZM66.664,74.212a6.46,6.46,0,0,1,1.058,5.918A1.862,1.862,0,0,1,65.9,81.623a1.882,1.882,0,0,1-1.835-1.6c-.178-1.053-.375-2.1-.567-3.117-.314-1.671-.619-3.29-.827-4.857A5.982,5.982,0,0,1,66.664,74.212Z" transform="translate(-60 -60.002)"/></g><g transform="translate(28.908 19.219)"><rect class="a" width="12" height="3" transform="translate(0.092 -0.219)"/></g><g transform="translate(29.571 28.954)"><rect class="a" width="2.402" height="10.743" transform="translate(0 2.149) rotate(-63.435)"/></g><g transform="translate(29.573 4.932)"><rect class="a" width="10.743" height="2.402" transform="translate(0 4.804) rotate(-26.565)"/></g></svg>