<svg xmlns="http://www.w3.org/2000/svg" width="88.235" height="31.981" viewBox="0 0 810.4 284.59"><defs><style>.cls-1{fill:#fff;}</style></defs><g id="レイヤー_2" data-name="レイヤー 2"><g id="レイヤー_1-2" data-name="レイヤー 1"><path class="cls-1" d="M84.4,136.61A168.2,168.2,0,0,1,97.69,70.85q3.11-7.35,6.88-14.31,3.66-6.78,7.91-13.16t8.92-12.23q4.72-5.89,9.95-11.34c2.12-2.21,4.31-4.36,6.54-6.45V2.7h0V0A142.34,142.34,0,0,0,0,142.26c0,33.84,11.81,63.2,31.53,87.63h0a93,93,0,0,0,66.16-27.53A168.15,168.15,0,0,1,84.4,136.61Z"/><circle class="cls-1" cx="142.33" cy="123.95" r="28.97" transform="translate(-18.02 24.4) rotate(-9.22)"/><path class="cls-1" d="M284.66,142.26A142.33,142.33,0,0,0,146.77,0V2.7h0V13.36q3.36,3.13,6.53,6.45,5.24,5.43,9.95,11.34c3.15,3.94,6.14,8,8.93,12.23s5.47,8.65,7.91,13.17S184.9,66,187,70.84h0a169.34,169.34,0,0,1,0,131.52,93,93,0,0,0,66.16,27.52h0C272.86,205.46,284.66,176.09,284.66,142.26Z"/><path class="cls-1" d="M64.73,261.59a142.42,142.42,0,0,0,155.21,0,120.3,120.3,0,0,0-155.21,0Z"/><path class="cls-1" d="M343.48,79.1V100h5.77l11.9-20.92h12L360,100.24a11.25,11.25,0,0,1-1.89,2.37,10.24,10.24,0,0,1-2.25,1.7,8.59,8.59,0,0,1,2.25,1.66,11.41,11.41,0,0,1,1.81,2.33l13.24,22.55H361l-11.75-21.37h-5.77v21.37H333.2V79.1Z"/><path class="cls-1" d="M391.82,79.1h16.34l13.09,51.75H410.67l-2.58-10.64h-16.2l-2.58,10.64H378.66Zm9.09,9.31h-1.77L394,111h12.13Z"/><path class="cls-1" d="M437.05,130.85H426.78V79.1h10.27Z"/><path class="cls-1" d="M467.21,103.16v7.54H446.58v-7.54Z"/><path class="cls-1" d="M478.57,79.1l9.69,21.22,9.68-21.22h11.91l-16.49,32.16v19.59H483.08V111.26L466.74,79.1Z"/><path class="cls-1" d="M531.68,78.21a30.68,30.68,0,0,1,8.87,1.11,14,14,0,0,1,6,3.44,13.48,13.48,0,0,1,3.36,5.87,30.65,30.65,0,0,1,1,8.51v15.67a30.57,30.57,0,0,1-1,8.5,13.46,13.46,0,0,1-3.36,5.88,14,14,0,0,1-6,3.44,30.68,30.68,0,0,1-8.87,1.11,31.14,31.14,0,0,1-8.88-1.11,13.74,13.74,0,0,1-6-3.44,14,14,0,0,1-3.36-5.88,29.41,29.41,0,0,1-1.07-8.5V97.14a29.48,29.48,0,0,1,1.07-8.51,14,14,0,0,1,3.36-5.87,13.74,13.74,0,0,1,6-3.44A31.14,31.14,0,0,1,531.68,78.21Zm0,9.39a14.66,14.66,0,0,0-4.4.55,5.86,5.86,0,0,0-2.78,1.78,7,7,0,0,0-1.44,3.21,24.57,24.57,0,0,0-.41,4.81v14a24.46,24.46,0,0,0,.41,4.8A7,7,0,0,0,524.5,120a5.84,5.84,0,0,0,2.78,1.77,14.63,14.63,0,0,0,4.4.56,14.38,14.38,0,0,0,4.32-.56,5.81,5.81,0,0,0,2.77-1.77,7.16,7.16,0,0,0,1.45-3.22,24.54,24.54,0,0,0,.4-4.8V98a24.65,24.65,0,0,0-.4-4.81,7.12,7.12,0,0,0-1.45-3.21A5.82,5.82,0,0,0,536,88.15,14.41,14.41,0,0,0,531.68,87.6Z"/><path class="cls-1" d="M571.71,79.1v31.42q0,6.21,2,8.69t6.95,2.47c3.31,0,5.63-.83,7-2.51s2-4.56,2-8.65V79.1h10.21V113q0,8.73-5.1,13.68t-14.13,5q-9,0-14.12-5T561.43,113V79.1Z"/><path class="cls-1" d="M344.22,154.77l13.83,24.33,13.3-24.33h11.1v51.76H372.24V170.74l-11.9,21.52h-5.18l-11.75-21.44v35.71H333.2V154.77Z"/><path class="cls-1" d="M400.86,188.71v2.44q0,4.07,1.7,6.06c1.14,1.33,3.13,2,5.95,2a22.22,22.22,0,0,0,3.31-.22,5.37,5.37,0,0,0,2.26-.85,3.53,3.53,0,0,0,1.3-1.82,9.45,9.45,0,0,0,.41-3.1h9.91a16.18,16.18,0,0,1-1.18,6.51,10.88,10.88,0,0,1-3.37,4.32,14.34,14.34,0,0,1-5.32,2.44,29.73,29.73,0,0,1-7.14.78q-8.58,0-13.08-4c-3-2.63-4.51-6.84-4.51-12.6v-9.84c0-5.77,1.46-10,4.4-12.57s7.33-3.92,13.19-3.92q8.51,0,13,3.74t4.51,12v8.58Zm15.6-9.39q0-3.84-1.9-5.36t-5.9-1.52a9.49,9.49,0,0,0-5.84,1.52q-2,1.51-2,5.36v2.29h15.6Z"/><path class="cls-1" d="M469.69,206.53h-7.76l-1.7-4.51a13,13,0,0,1-4.62,3.77,15.22,15.22,0,0,1-6.92,1.48,20.91,20.91,0,0,1-7.13-1.07,11.15,11.15,0,0,1-4.7-3.15,12.49,12.49,0,0,1-2.55-5.14,28.89,28.89,0,0,1-.77-7V180.72a28.89,28.89,0,0,1,.77-7,12.19,12.19,0,0,1,2.59-5.14,11.3,11.3,0,0,1,4.7-3.14,20.3,20.3,0,0,1,7.09-1.08,16.29,16.29,0,0,1,6.77,1.33,12.21,12.21,0,0,1,4.62,3.48V151.81h9.61Zm-18-33.79c-3.06,0-5.21.65-6.47,2s-1.88,3.49-1.88,6.54v9.17c0,3,.61,5.11,1.85,6.47s3.4,2,6.5,2a8.51,8.51,0,0,0,6.18-2.18q2.25-2.17,2.25-6.54v-8.65q0-4.51-2.33-6.66A8.63,8.63,0,0,0,451.65,172.74Z"/><path class="cls-1" d="M489,165.12v41.41h-9.76V165.12Zm-.44-13.38v8.87h-8.88v-8.87Z"/><path class="cls-1" d="M508.36,165.12v25.29q0,4.36,1.71,6.51t6.39,2.14a7.31,7.31,0,0,0,5.94-2.4c1.34-1.6,2-4,2-7.06V165.12h9.76v41.41h-7.78l-1.61-4.66a12.5,12.5,0,0,1-4.4,3.88,13.78,13.78,0,0,1-6.69,1.52,20.61,20.61,0,0,1-7.1-1.07,11.14,11.14,0,0,1-4.66-3.15,12.49,12.49,0,0,1-2.55-5.14,28.37,28.37,0,0,1-.78-7V165.12Z"/><path class="cls-1" d="M551.62,165.12l1.55,4.51a12.19,12.19,0,0,1,4.25-3.8,13.2,13.2,0,0,1,6.47-1.45,12.47,12.47,0,0,1,6.32,1.59,10.06,10.06,0,0,1,4.18,4.62,14.7,14.7,0,0,1,5.25-4.51,16.93,16.93,0,0,1,7.91-1.7q8.36,0,11.9,4.22T603,180.8v25.73h-9.76V182a13,13,0,0,0-1.51-6.73q-1.51-2.5-5.88-2.51a7.15,7.15,0,0,0-5.66,2.14q-1.87,2.15-1.88,7.1v24.55h-9.76V182a13,13,0,0,0-1.52-6.69q-1.51-2.55-5.88-2.55-3.84,0-5.69,2.18t-1.85,7.28v24.33h-9.76V165.12Z"/><path class="cls-1" d="M625.55,154.77H662.3v9.69H649.07v42.07H638.79V164.46H625.55Z"/><path class="cls-1" d="M677.16,188.71v2.44q0,4.07,1.71,6.06t6,2a22.17,22.17,0,0,0,3.3-.22,5.41,5.41,0,0,0,2.27-.85,3.59,3.59,0,0,0,1.3-1.82,9.73,9.73,0,0,0,.41-3.1H702a16,16,0,0,1-1.18,6.51,11,11,0,0,1-3.36,4.32,14.39,14.39,0,0,1-5.33,2.44,29.65,29.65,0,0,1-7.13.78q-8.58,0-13.09-4c-3-2.63-4.51-6.84-4.51-12.6v-9.84c0-5.77,1.47-10,4.4-12.57s7.33-3.92,13.2-3.92q8.5,0,13,3.74t4.51,12v8.58Zm15.6-9.39q0-3.84-1.89-5.36c-1.27-1-3.23-1.52-5.91-1.52a9.46,9.46,0,0,0-5.83,1.52q-2,1.51-2,5.36v2.29h15.6Z"/><path class="cls-1" d="M735.13,181.46v-2.81c0-2.21-.62-3.77-1.86-4.65a9.69,9.69,0,0,0-5.64-1.34c-3.17,0-5.32.7-6.43,2.07s-1.67,3.55-1.67,6.51v9.17c0,2.91.54,5.06,1.63,6.47s3.25,2.11,6.47,2.11a9.78,9.78,0,0,0,5.64-1.33q1.86-1.33,1.86-4.66v-2.81h9.76V193a14.64,14.64,0,0,1-1.33,6.54,11.84,11.84,0,0,1-3.66,4.4,15.88,15.88,0,0,1-5.55,2.51,28.38,28.38,0,0,1-7.06.82q-8.79,0-13.16-4.07t-4.36-12.72v-9.39q0-8.64,4.4-12.68t13.12-4a30.46,30.46,0,0,1,7.1.78,15.19,15.19,0,0,1,5.58,2.51,11.94,11.94,0,0,1,3.63,4.44,15.07,15.07,0,0,1,1.29,6.54v2.81Z"/><path class="cls-1" d="M763.08,151.81v17.45a12.65,12.65,0,0,1,4.51-3.51,15.06,15.06,0,0,1,6.65-1.37,20.72,20.72,0,0,1,7.14,1.08,11.34,11.34,0,0,1,4.73,3.14,12.21,12.21,0,0,1,2.59,5.1,28.34,28.34,0,0,1,.77,7v25.81h-9.76V181.32q0-4.44-1.77-6.51c-1.18-1.38-3.33-2.07-6.43-2.07a8.13,8.13,0,0,0-6.21,2.33q-2.22,2.33-2.22,6.91v24.55h-9.76V151.81Z"/><path class="cls-1" d="M810.4,206.53h-9.91V196h9.91Z"/></g></g></svg>
