<svg xmlns="http://www.w3.org/2000/svg" width="92.064" height="74.707" viewBox="0 0 92.064 74.707"><defs><style>.a{fill:#fff;}</style></defs><g transform="translate(0 0)"><path class="a" d="M90.2,43.09a1.279,1.279,0,0,0-2.23-.273c-1.616,2.265-3.736,3.02-6.192,3.895a23.147,23.147,0,0,0-6.241,3.023c-3.13,2.247-4.562,5.31-3.848,8.214l-.076.1a42,42,0,0,0-4.23-5.216A39.531,39.531,0,0,0,40.467,40.746c-.444-.016-.9-.023-1.342-.023A39.048,39.048,0,0,0,9.55,54.536,38.869,38.869,0,0,0,.437,85.725c.142.927.321,1.863.53,2.784,2.77,12.191,9.844,21.465,19.409,25.443a18.372,18.372,0,0,0,7.068,1.478c5.793,0,10.853-3.1,13.883-8.5a18.388,18.388,0,0,0,2.208-6.319,15.254,15.254,0,0,0-.064-3.744,14.083,14.083,0,0,1-.055-3.642,4.88,4.88,0,0,1,5.125-4.38,7.9,7.9,0,0,1,2.4.386c-.942,1.728-1.8,3.379-2.546,4.909a49.844,49.844,0,0,0-3.25,7.979c-.353,1.266-1.29,4.629,1,6.215a3.416,3.416,0,0,0,2.6.5c.863-.16,3.489-.648,10.95-9.142,2-2.279,4.16-4.917,6.416-7.842A17.376,17.376,0,0,0,77.6,79.473a18.244,18.244,0,0,0,.37-4.435c2.168-3.35,4.069-6.476,5.983-9.837.037-.065.073-.134.109-.2a10.546,10.546,0,0,0,6.573-5.944C92.68,54.641,92.528,48.972,90.2,43.09ZM58.9,63.977a5.452,5.452,0,1,1,.7-4.113A5.428,5.428,0,0,1,58.9,63.977Zm7.077,9.879c2.756-4.061,5.672-8.1,8.44-11.69a14.949,14.949,0,0,0,1.494,1.179,11.487,11.487,0,0,0,2.805,1.439c-2.338,4-4.851,7.958-7.895,12.441A204.64,204.64,0,0,1,56.186,96.5a56.453,56.453,0,0,1-6.323,6.359,57.052,57.052,0,0,1,3.6-8.258A205.272,205.272,0,0,1,65.98,73.855Zm-48.4-.035a5.453,5.453,0,1,1,4.62-2.548A5.435,5.435,0,0,1,17.584,73.82ZM11.868,85.826a5.452,5.452,0,1,1-.7,4.113A5.428,5.428,0,0,1,11.868,85.826ZM29.33,53.444a5.453,5.453,0,1,1-.7,4.113A5.428,5.428,0,0,1,29.33,53.444Z" transform="translate(0 -40.723)"/></g></svg>