<svg xmlns="http://www.w3.org/2000/svg" width="65.912" height="74.707" viewBox="0 0 65.912 74.707"><defs><style>.a{fill:#fff;}</style></defs><g transform="translate(0 0)"><g transform="translate(0 0)"><g transform="translate(27.664 0.59)"><path class="a" d="M252.282,34.111,223.536,5.361a4.32,4.32,0,1,0-6.111,6.109l28.75,28.748a4.318,4.318,0,1,0,6.107-6.107Z" transform="translate(-216.163 -4.1)"/></g><g transform="translate(15.949 12.265)"><path class="a" d="M147.948,82.905l-.216,1.085a46.419,46.419,0,0,1-10.238,20.736l15.64,15.64a46.264,46.264,0,0,1,20.636-10.338l1.087-.216Z" transform="translate(-137.494 -82.905)"/></g><g transform="translate(0 37.997)"><path class="a" d="M42.723,256.989,32.034,267.676a6.477,6.477,0,0,0,0,9.162l6.107,6.107a6.477,6.477,0,0,0,9.162,0l10.688-10.688Zm1.527,16.8a2.159,2.159,0,0,1-3.053-3.053l3.053-3.053a2.159,2.159,0,1,1,3.053,3.053Z" transform="translate(-30.136 -256.989)"/></g><g transform="translate(23.716 50.821)"><path class="a" d="M205.41,360.356l2.937-2.937a6.472,6.472,0,0,0,0-9.16l-2.182-2.183a40.888,40.888,0,0,0-3.477,2.629l2.606,2.609a2.154,2.154,0,0,1,0,3.051l-2.986,2.986L197.92,353.1l-6.107,6.107,9.8,9.493a4.319,4.319,0,0,0,6.1-6.111Z" transform="translate(-191.813 -346.075)"/></g><g transform="translate(44.068)"><path class="a" d="M334.023,0a2.158,2.158,0,0,0-2.159,2.159V6.478a2.159,2.159,0,1,0,4.319,0V2.159A2.158,2.158,0,0,0,334.023,0Z" transform="translate(-331.864)"/></g><g transform="translate(57.275 17.524)"><path class="a" d="M428.342,120h-4.319a2.159,2.159,0,1,0,0,4.319h4.319a2.159,2.159,0,1,0,0-4.319Z" transform="translate(-421.864 -120)"/></g><g transform="translate(52.956 4.319)"><path class="a" d="M399.868,30.632a2.159,2.159,0,0,0-3.053,0L392.5,34.951A2.159,2.159,0,0,0,395.55,38l4.319-4.319A2.159,2.159,0,0,0,399.868,30.632Z" transform="translate(-391.864 -30)"/></g></g></g></svg>