<svg xmlns="http://www.w3.org/2000/svg" width="74.857" height="74.706" viewBox="0 0 74.857 74.706"><defs><style>.a{fill:#fff;}</style></defs><g transform="translate(0 0)"><path class="a" d="M231.816,361.152c5.721-.813,10.737-6.784,13.893-15.6a67.908,67.908,0,0,0-13.893-1.635Zm0,0" transform="translate(-193.045 -286.446)"/><path class="a" d="M280.667,371.159c.338-.1.675-.2,1.009-.3.282-.091.56-.189.838-.286.329-.114.657-.23.983-.355.278-.106.554-.218.83-.33.319-.134.637-.267.951-.4.275-.121.548-.247.821-.375.309-.146.616-.294.921-.448q.4-.2.8-.419.45-.241.893-.493c.268-.151.526-.3.786-.46q.435-.267.865-.535c.257-.163.512-.329.765-.5.282-.19.56-.388.837-.586.249-.178.5-.356.739-.535.268-.206.542-.42.81-.634.238-.19.476-.379.71-.574.267-.222.523-.452.782-.682.227-.2.456-.4.678-.608.255-.238.5-.485.753-.73.215-.213.434-.422.644-.64.039-.04.076-.084.117-.126a44.939,44.939,0,0,0-9.162-3.526A33.18,33.18,0,0,1,279.5,371.49c.108-.028.217-.051.325-.079C280.107,371.33,280.388,371.242,280.667,371.159Zm0,0" transform="translate(-232.741 -297.855)"/><path class="a" d="M354.29,231.684H338.258a69.342,69.342,0,0,1-2.7,18.5,46.5,46.5,0,0,1,10.148,4.038A37.357,37.357,0,0,0,354.29,231.684Zm0,0" transform="translate(-279.434 -192.984)"/><path class="a" d="M231.816,126.782h17.365a66.889,66.889,0,0,0-2.632-17.841,70.429,70.429,0,0,1-14.732,1.757Zm0,0" transform="translate(-193.044 -90.773)"/><path class="a" d="M231.816.316V17.554a67.956,67.956,0,0,0,13.893-1.635c-3.156-8.818-8.171-14.79-13.893-15.6Zm0,0" transform="translate(-193.045 -0.317)"/><path class="a" d="M231.816,247.767a70.475,70.475,0,0,1,14.732,1.758,66.893,66.893,0,0,0,2.632-17.841H231.816Zm0,0" transform="translate(-193.044 -192.986)"/><path class="a" d="M345.706,80.844a46.5,46.5,0,0,1-10.148,4.038,69.342,69.342,0,0,1,2.7,18.5H354.29A37.368,37.368,0,0,0,345.706,80.844Zm0,0" transform="translate(-279.434 -67.374)"/><path class="a" d="M297.175,17.144c-.039-.04-.076-.083-.115-.124-.212-.218-.431-.428-.646-.64-.248-.245-.5-.492-.751-.73-.221-.206-.45-.4-.678-.607-.259-.23-.518-.462-.785-.684-.231-.2-.468-.382-.7-.569-.268-.217-.542-.432-.817-.639-.242-.182-.486-.358-.733-.535-.279-.2-.56-.4-.845-.593-.25-.168-.5-.333-.758-.494-.289-.186-.578-.368-.872-.545-.258-.155-.518-.308-.78-.456q-.449-.257-.9-.5c-.268-.134-.535-.279-.8-.413-.308-.155-.618-.3-.936-.452q-.4-.191-.815-.372c-.317-.14-.637-.267-.956-.4-.276-.112-.55-.223-.828-.329-.324-.124-.654-.24-.983-.354-.278-.1-.556-.2-.838-.287-.334-.108-.669-.207-1.012-.306-.278-.082-.558-.165-.839-.239-.108-.029-.217-.052-.326-.08A33.182,33.182,0,0,1,288,20.673,44.873,44.873,0,0,0,297.175,17.144Zm0,0" transform="translate(-232.709 -5.714)"/><path class="a" d="M0,103.381H16.032a69.368,69.368,0,0,1,2.7-18.5A46.446,46.446,0,0,1,8.584,80.844,37.358,37.358,0,0,0,0,103.381Zm0,0" transform="translate(0 -67.374)"/><path class="a" d="M146.588,361.152V343.914A67.952,67.952,0,0,0,132.7,345.55C135.851,354.368,140.867,360.339,146.588,361.152Zm0,0" transform="translate(-110.502 -286.446)"/><path class="a" d="M129.287,231.684H111.922a66.868,66.868,0,0,0,2.632,17.841,70.383,70.383,0,0,1,14.732-1.758Zm0,0" transform="translate(-93.202 -192.986)"/><path class="a" d="M146.588.316c-5.721.813-10.737,6.784-13.893,15.6a67.865,67.865,0,0,0,13.893,1.635Zm0,0" transform="translate(-110.502 -0.317)"/><path class="a" d="M129.287,110.7a70.429,70.429,0,0,1-14.732-1.757,66.863,66.863,0,0,0-2.632,17.841h17.365Zm0,0" transform="translate(-93.202 -90.773)"/><path class="a" d="M79.895,6.789c-.108.028-.217.051-.325.079-.283.076-.563.16-.845.242-.336.1-.669.2-1.005.3-.284.092-.563.19-.843.287-.327.116-.655.23-.979.353-.279.107-.555.218-.832.332l-.951.4c-.276.121-.548.247-.821.375-.309.146-.616.294-.921.448q-.4.2-.8.418-.45.241-.892.494-.4.224-.789.46c-.291.175-.578.356-.864.535-.257.165-.513.33-.765.5-.282.19-.56.388-.837.586-.249.178-.5.356-.74.535-.274.206-.535.42-.81.633-.238.19-.477.379-.71.575-.268.221-.522.449-.78.678-.229.2-.459.4-.682.612-.254.237-.5.483-.75.727-.215.213-.435.423-.646.642-.039.04-.076.085-.116.126a44.89,44.89,0,0,0,9.162,3.526A33.169,33.169,0,0,1,79.895,6.789Zm0,0" transform="translate(-51.797 -5.707)"/><path class="a" d="M62.981,361.853c.249.245.5.492.751.731.222.206.45.4.678.607.259.23.518.462.785.684.231.194.467.381.7.569.268.217.535.432.818.64.241.181.486.356.731.535.279.2.561.4.846.593.25.168.5.333.758.495.289.185.578.368.872.544q.387.233.78.456.449.257.9.5c.267.134.535.279.8.413.308.155.618.3.936.452q.4.189.815.371c.317.14.636.267.956.4.276.112.55.223.828.329.324.125.654.241.983.354.278.1.556.2.838.286.334.108.669.208,1.012.306.278.082.558.165.838.24.108.029.218.052.326.08a33.189,33.189,0,0,1-8.546-13.877,44.894,44.894,0,0,0-9.162,3.528c.039.04.076.083.116.124C62.546,361.431,62.763,361.641,62.981,361.853Zm0,0" transform="translate(-51.829 -297.813)"/><path class="a" d="M8.584,254.22a46.513,46.513,0,0,1,10.147-4.038,69.368,69.368,0,0,1-2.7-18.5H0A37.364,37.364,0,0,0,8.584,254.22Zm0,0" transform="translate(0 -192.984)"/></g></svg>