<svg xmlns="http://www.w3.org/2000/svg" width="65.912" height="74.707" viewBox="0 0 65.912 74.707">
  <g id="グループ_1646" data-name="グループ 1646" transform="translate(0 0)">
    <g id="megaphone" transform="translate(0 0)">
      <g id="グループ_1547" data-name="グループ 1547" transform="translate(27.664 0.59)">
        <g id="グループ_1546" data-name="グループ 1546">
          <path id="パス_37" data-name="パス 37" d="M252.282,34.111,223.536,5.361a4.32,4.32,0,1,0-6.111,6.109l28.75,28.748a4.318,4.318,0,1,0,6.107-6.107Z" transform="translate(-216.163 -4.1)" fill="#0665f8"/>
        </g>
      </g>
      <g id="グループ_1549" data-name="グループ 1549" transform="translate(15.949 12.265)">
        <g id="グループ_1548" data-name="グループ 1548">
          <path id="パス_38" data-name="パス 38" d="M147.948,82.905l-.216,1.085a46.419,46.419,0,0,1-10.238,20.736l15.64,15.64a46.264,46.264,0,0,1,20.636-10.338l1.087-.216Z" transform="translate(-137.494 -82.905)" fill="#0665f8"/>
        </g>
      </g>
      <g id="グループ_1551" data-name="グループ 1551" transform="translate(0 37.997)">
        <g id="グループ_1550" data-name="グループ 1550">
          <path id="パス_39" data-name="パス 39" d="M42.723,256.989,32.034,267.676a6.477,6.477,0,0,0,0,9.162l6.107,6.107a6.477,6.477,0,0,0,9.162,0l10.688-10.688Zm1.527,16.8a2.159,2.159,0,0,1-3.053-3.053l3.053-3.053a2.159,2.159,0,1,1,3.053,3.053Z" transform="translate(-30.136 -256.989)" fill="#0665f8"/>
        </g>
      </g>
      <g id="グループ_1553" data-name="グループ 1553" transform="translate(23.716 50.821)">
        <g id="グループ_1552" data-name="グループ 1552">
          <path id="パス_40" data-name="パス 40" d="M205.41,360.356l2.937-2.937a6.472,6.472,0,0,0,0-9.16l-2.182-2.183a40.888,40.888,0,0,0-3.477,2.629l2.606,2.609a2.154,2.154,0,0,1,0,3.051l-2.986,2.986L197.92,353.1l-6.107,6.107,9.8,9.493a4.319,4.319,0,0,0,6.1-6.111Z" transform="translate(-191.813 -346.075)" fill="#0665f8"/>
        </g>
      </g>
      <g id="グループ_1555" data-name="グループ 1555" transform="translate(44.068)">
        <g id="グループ_1554" data-name="グループ 1554">
          <path id="パス_41" data-name="パス 41" d="M334.023,0a2.158,2.158,0,0,0-2.159,2.159V6.478a2.159,2.159,0,1,0,4.319,0V2.159A2.158,2.158,0,0,0,334.023,0Z" transform="translate(-331.864)" fill="#0665f8"/>
        </g>
      </g>
      <g id="グループ_1557" data-name="グループ 1557" transform="translate(57.275 17.524)">
        <g id="グループ_1556" data-name="グループ 1556">
          <path id="パス_42" data-name="パス 42" d="M428.342,120h-4.319a2.159,2.159,0,1,0,0,4.319h4.319a2.159,2.159,0,1,0,0-4.319Z" transform="translate(-421.864 -120)" fill="#0665f8"/>
        </g>
      </g>
      <g id="グループ_1559" data-name="グループ 1559" transform="translate(52.956 4.319)">
        <g id="グループ_1558" data-name="グループ 1558">
          <path id="パス_43" data-name="パス 43" d="M399.868,30.632a2.159,2.159,0,0,0-3.053,0L392.5,34.951A2.159,2.159,0,0,0,395.55,38l4.319-4.319A2.159,2.159,0,0,0,399.868,30.632Z" transform="translate(-391.864 -30)" fill="#0665f8"/>
        </g>
      </g>
    </g>
  </g>
</svg>
